<?xml version="1.0" encoding="UTF-8" standalone="no"?>
<svg
   xmlns:dc="http://purl.org/dc/elements/1.1/"
   xmlns:cc="http://creativecommons.org/ns#"
   xmlns:rdf="http://www.w3.org/1999/02/22-rdf-syntax-ns#"
   xmlns:svg="http://www.w3.org/2000/svg"
   xmlns="http://www.w3.org/2000/svg"
   id="svg869"
   viewBox="0 0 40 40"
   height="40"
   width="40"
   version="1.1">
  <metadata
     id="metadata875">
    <rdf:RDF>
      <cc:Work
         rdf:about="">
        <dc:format>image/svg+xml</dc:format>
        <dc:type
           rdf:resource="http://purl.org/dc/dcmitype/StillImage" />
        <dc:title></dc:title>
      </cc:Work>
    </rdf:RDF>
  </metadata>
  <defs
     id="defs873" />
  <rect
     y="0"
     x="0"
     height="40"
     width="40"
     id="rect1430"
     style="opacity:1;fill:#4c566a;fill-opacity:1;stroke:none;stroke-opacity:1" />
  <path
     style="fill:#50fa7b;fill-opacity:1;stroke-width:0.99999994"
     id="path867"
     d="m 16.849454,5.8225404 c -3.938184,0 -7.08873,3.1505462 -7.08873,7.0887306 0,0.960916 0.204785,1.90608 0.582851,2.788233 -1.370488,1.338983 -2.158125,3.1663 -2.158125,5.088133 0,3.938183 3.150547,7.08873 7.08873,7.08873 0.787637,0 1.575274,-0.17328 2.36291,-0.441076 v 6.742169 h 3.150547 v -8.238679 c 0.787636,0.220538 1.575273,0.362313 2.36291,0.362313 A 8.6640031,8.6640031 0 0 0 31.81455,17.637091 8.6640031,8.6640031 0 0 0 23.150547,8.9730866 c -0.141775,0 -0.267797,0 -0.409571,0 C 21.433499,7.0197484 19.212364,5.8225404 16.849454,5.8225404 m 0,3.1505462 c 2.07936,0 3.796408,1.6225324 3.938183,3.7018934 0.724626,-0.362313 1.575273,-0.551346 2.36291,-0.551346 a 5.5134566,5.5134566 0 0 1 5.513456,5.513457 5.5134566,5.5134566 0 0 1 -5.513456,5.513456 c -1.512263,0 -2.945761,-0.614356 -4.001194,-1.717048 -0.315055,1.906081 -1.953339,3.292321 -3.875173,3.292321 a 3.9381833,3.9381833 0 0 1 -3.938183,-3.938183 c 0,-2.173877 1.260219,-3.087535 3.150547,-4.26899 -1.260219,-1.622532 -1.575274,-2.567696 -1.575274,-3.607376 a 3.9381833,3.9381833 0 0 1 3.938184,-3.9381844 z" />
</svg>
